<?xml version="1.0" encoding="UTF-8" standalone="no"?>
<!DOCTYPE svg PUBLIC "-//W3C//DTD SVG 1.1//EN"
 "http://www.w3.org/Graphics/SVG/1.1/DTD/svg11.dtd">
<!-- Generated by graphviz version 2.44.0 (0)
 -->
<!-- Title: G Pages: 1 -->
<svg width="1627pt" height="590pt"
 viewBox="0.00 0.00 1627.00 590.00" xmlns="http://www.w3.org/2000/svg" xmlns:xlink="http://www.w3.org/1999/xlink">
<g id="graph0" class="graph" transform="scale(1 1) rotate(0) translate(4 586)">
<title>G</title>
<polygon fill="white" stroke="transparent" points="-4,4 -4,-586 1623,-586 1623,4 -4,4"/>
<!-- data.aws_ami.amazon_linux -->
<g id="node1" class="node">
<title>data.aws_ami.amazon_linux</title>
<polygon fill="none" stroke="black" points="361,-504 150,-504 150,-468 361,-468 361,-504"/>
<text text-anchor="middle" x="255.5" y="-482.3" font-family="sans-serif" font-size="14.00">data.aws_ami.amazon_linux</text>
</g>
<!-- data.aws_ami.ubuntu -->
<g id="node2" class="node">
<title>data.aws_ami.ubuntu</title>
<polygon fill="none" stroke="black" points="1481,-582 1315,-582 1315,-546 1481,-546 1481,-582"/>
<text text-anchor="middle" x="1398" y="-560.3" font-family="sans-serif" font-size="14.00">data.aws_ami.ubuntu</text>
</g>
<!-- aws_autoscaling_group.asg -->
<g id="node3" class="node">
<title>aws_autoscaling_group.asg</title>
<polygon fill="none" stroke="black" points="1026.5,-501 820.5,-501 820.5,-465 1026.5,-465 1026.5,-501"/>
<text text-anchor="middle" x="923.5" y="-479.3" font-family="sans-serif" font-size="14.00">aws_autoscaling_group.asg</text>
</g>
<!-- aws_launch_configuration.ec2&#45;config -->
<g id="node9" class="node">
<title>aws_launch_configuration.ec2&#45;config</title>
<polygon fill="none" stroke="black" points="670,-544 397,-544 397,-508 670,-508 670,-544"/>
<text text-anchor="middle" x="533.5" y="-522.3" font-family="sans-serif" font-size="14.00">aws_launch_configuration.ec2&#45;config</text>
</g>
<!-- aws_autoscaling_group.asg&#45;&gt;aws_launch_configuration.ec2&#45;config -->
<g id="edge1" class="edge">
<title>aws_autoscaling_group.asg&#45;&gt;aws_launch_configuration.ec2&#45;config</title>
<path fill="none" stroke="black" d="M820.3,-494.33C777.53,-499.07 727.01,-504.66 680.44,-509.83"/>
<polygon fill="black" stroke="black" points="679.81,-506.37 670.26,-510.95 680.58,-513.33 679.81,-506.37"/>
</g>
<!-- aws_lb_target_group.target&#45;group -->
<g id="node12" class="node">
<title>aws_lb_target_group.target&#45;group</title>
<polygon fill="none" stroke="black" points="658.5,-382 408.5,-382 408.5,-346 658.5,-346 658.5,-382"/>
<text text-anchor="middle" x="533.5" y="-360.3" font-family="sans-serif" font-size="14.00">aws_lb_target_group.target&#45;group</text>
</g>
<!-- aws_autoscaling_group.asg&#45;&gt;aws_lb_target_group.target&#45;group -->
<g id="edge2" class="edge">
<title>aws_autoscaling_group.asg&#45;&gt;aws_lb_target_group.target&#45;group</title>
<path fill="none" stroke="black" d="M879.37,-464.99C829.62,-444.76 745.03,-412.01 670,-391 661.61,-388.65 652.87,-386.42 644.05,-384.33"/>
<polygon fill="black" stroke="black" points="644.61,-380.87 634.08,-382.03 643.03,-387.69 644.61,-380.87"/>
</g>
<!-- aws_subnet.private_subnet1 -->
<g id="node25" class="node">
<title>aws_subnet.private_subnet1</title>
<polygon fill="none" stroke="black" points="641,-436 426,-436 426,-400 641,-400 641,-436"/>
<text text-anchor="middle" x="533.5" y="-414.3" font-family="sans-serif" font-size="14.00">aws_subnet.private_subnet1</text>
</g>
<!-- aws_autoscaling_group.asg&#45;&gt;aws_subnet.private_subnet1 -->
<g id="edge3" class="edge">
<title>aws_autoscaling_group.asg&#45;&gt;aws_subnet.private_subnet1</title>
<path fill="none" stroke="black" d="M820.3,-465.88C768.31,-457.17 704.88,-446.54 650.99,-437.52"/>
<polygon fill="black" stroke="black" points="651.49,-434.05 641.05,-435.85 650.33,-440.95 651.49,-434.05"/>
</g>
<!-- aws_subnet.private_subnet2 -->
<g id="node26" class="node">
<title>aws_subnet.private_subnet2</title>
<polygon fill="none" stroke="black" points="641,-490 426,-490 426,-454 641,-454 641,-490"/>
<text text-anchor="middle" x="533.5" y="-468.3" font-family="sans-serif" font-size="14.00">aws_subnet.private_subnet2</text>
</g>
<!-- aws_autoscaling_group.asg&#45;&gt;aws_subnet.private_subnet2 -->
<g id="edge4" class="edge">
<title>aws_autoscaling_group.asg&#45;&gt;aws_subnet.private_subnet2</title>
<path fill="none" stroke="black" d="M820.3,-480.1C768.42,-478.63 705.14,-476.84 651.33,-475.31"/>
<polygon fill="black" stroke="black" points="651.14,-471.81 641.05,-475.02 650.94,-478.8 651.14,-471.81"/>
</g>
<!-- aws_autoscaling_policy.asg&#45;policy&#45;down -->
<g id="node4" class="node">
<title>aws_autoscaling_policy.asg&#45;policy&#45;down</title>
<polygon fill="none" stroke="black" points="1544.5,-528 1251.5,-528 1251.5,-492 1544.5,-492 1544.5,-528"/>
<text text-anchor="middle" x="1398" y="-506.3" font-family="sans-serif" font-size="14.00">aws_autoscaling_policy.asg&#45;policy&#45;down</text>
</g>
<!-- aws_autoscaling_policy.asg&#45;policy&#45;down&#45;&gt;aws_autoscaling_group.asg -->
<g id="edge5" class="edge">
<title>aws_autoscaling_policy.asg&#45;policy&#45;down&#45;&gt;aws_autoscaling_group.asg</title>
<path fill="none" stroke="black" d="M1251.38,-501.68C1182.27,-497.73 1100.97,-493.08 1036.73,-489.41"/>
<polygon fill="black" stroke="black" points="1036.76,-485.91 1026.58,-488.83 1036.36,-492.9 1036.76,-485.91"/>
</g>
<!-- aws_autoscaling_policy.asg&#45;policy&#45;up -->
<g id="node5" class="node">
<title>aws_autoscaling_policy.asg&#45;policy&#45;up</title>
<polygon fill="none" stroke="black" points="1534.5,-474 1261.5,-474 1261.5,-438 1534.5,-438 1534.5,-474"/>
<text text-anchor="middle" x="1398" y="-452.3" font-family="sans-serif" font-size="14.00">aws_autoscaling_policy.asg&#45;policy&#45;up</text>
</g>
<!-- aws_autoscaling_policy.asg&#45;policy&#45;up&#45;&gt;aws_autoscaling_group.asg -->
<g id="edge6" class="edge">
<title>aws_autoscaling_policy.asg&#45;policy&#45;up&#45;&gt;aws_autoscaling_group.asg</title>
<path fill="none" stroke="black" d="M1261.28,-463.76C1190.22,-467.82 1104.24,-472.73 1036.94,-476.57"/>
<polygon fill="black" stroke="black" points="1036.52,-473.09 1026.73,-477.16 1036.91,-480.08 1036.52,-473.09"/>
</g>
<!-- aws_eip.nat&#45;eip&#45;a -->
<g id="node6" class="node">
<title>aws_eip.nat&#45;eip&#45;a</title>
<polygon fill="none" stroke="black" points="324.5,-36 186.5,-36 186.5,0 324.5,0 324.5,-36"/>
<text text-anchor="middle" x="255.5" y="-14.3" font-family="sans-serif" font-size="14.00">aws_eip.nat&#45;eip&#45;a</text>
</g>
<!-- aws_eip.nat&#45;eip&#45;b -->
<g id="node7" class="node">
<title>aws_eip.nat&#45;eip&#45;b</title>
<polygon fill="none" stroke="black" points="325,-336 186,-336 186,-300 325,-300 325,-336"/>
<text text-anchor="middle" x="255.5" y="-314.3" font-family="sans-serif" font-size="14.00">aws_eip.nat&#45;eip&#45;b</text>
</g>
<!-- aws_internet_gateway.igw -->
<g id="node8" class="node">
<title>aws_internet_gateway.igw</title>
<polygon fill="none" stroke="black" points="353.5,-174 157.5,-174 157.5,-138 353.5,-138 353.5,-174"/>
<text text-anchor="middle" x="255.5" y="-152.3" font-family="sans-serif" font-size="14.00">aws_internet_gateway.igw</text>
</g>
<!-- aws_vpc.main -->
<g id="node29" class="node">
<title>aws_vpc.main</title>
<polygon fill="none" stroke="black" points="114,-332 0,-332 0,-296 114,-296 114,-332"/>
<text text-anchor="middle" x="57" y="-310.3" font-family="sans-serif" font-size="14.00">aws_vpc.main</text>
</g>
<!-- aws_internet_gateway.igw&#45;&gt;aws_vpc.main -->
<g id="edge7" class="edge">
<title>aws_internet_gateway.igw&#45;&gt;aws_vpc.main</title>
<path fill="none" stroke="black" d="M165.55,-174.12C160.09,-176.7 154.85,-179.64 150,-183 112.07,-209.27 84.64,-256.57 70.05,-286.57"/>
<polygon fill="black" stroke="black" points="66.86,-285.11 65.76,-295.65 73.19,-288.1 66.86,-285.11"/>
</g>
<!-- aws_launch_configuration.ec2&#45;config&#45;&gt;data.aws_ami.amazon_linux -->
<g id="edge8" class="edge">
<title>aws_launch_configuration.ec2&#45;config&#45;&gt;data.aws_ami.amazon_linux</title>
<path fill="none" stroke="black" d="M408.23,-507.99C395.93,-506.21 383.49,-504.4 371.29,-502.64"/>
<polygon fill="black" stroke="black" points="371.52,-499.13 361.12,-501.16 370.51,-506.06 371.52,-499.13"/>
</g>
<!-- aws_security_group.ec2&#45;sg -->
<g id="node23" class="node">
<title>aws_security_group.ec2&#45;sg</title>
<polygon fill="none" stroke="black" points="357.5,-558 153.5,-558 153.5,-522 357.5,-522 357.5,-558"/>
<text text-anchor="middle" x="255.5" y="-536.3" font-family="sans-serif" font-size="14.00">aws_security_group.ec2&#45;sg</text>
</g>
<!-- aws_launch_configuration.ec2&#45;config&#45;&gt;aws_security_group.ec2&#45;sg -->
<g id="edge9" class="edge">
<title>aws_launch_configuration.ec2&#45;config&#45;&gt;aws_security_group.ec2&#45;sg</title>
<path fill="none" stroke="black" d="M396.93,-532.88C387.21,-533.37 377.49,-533.86 367.94,-534.35"/>
<polygon fill="black" stroke="black" points="367.46,-530.87 357.65,-534.87 367.82,-537.86 367.46,-530.87"/>
</g>
<!-- aws_lb.load&#45;balancer -->
<g id="node10" class="node">
<title>aws_lb.load&#45;balancer</title>
<polygon fill="none" stroke="black" points="614.5,-236 452.5,-236 452.5,-200 614.5,-200 614.5,-236"/>
<text text-anchor="middle" x="533.5" y="-214.3" font-family="sans-serif" font-size="14.00">aws_lb.load&#45;balancer</text>
</g>
<!-- aws_security_group.lb_sg -->
<g id="node24" class="node">
<title>aws_security_group.lb_sg</title>
<polygon fill="none" stroke="black" points="352.5,-228 158.5,-228 158.5,-192 352.5,-192 352.5,-228"/>
<text text-anchor="middle" x="255.5" y="-206.3" font-family="sans-serif" font-size="14.00">aws_security_group.lb_sg</text>
</g>
<!-- aws_lb.load&#45;balancer&#45;&gt;aws_security_group.lb_sg -->
<g id="edge10" class="edge">
<title>aws_lb.load&#45;balancer&#45;&gt;aws_security_group.lb_sg</title>
<path fill="none" stroke="black" d="M452.3,-215.68C424.27,-214.86 392.36,-213.94 362.56,-213.07"/>
<polygon fill="black" stroke="black" points="362.64,-209.58 352.54,-212.78 362.43,-216.57 362.64,-209.58"/>
</g>
<!-- aws_subnet.public_subnet1 -->
<g id="node27" class="node">
<title>aws_subnet.public_subnet1</title>
<polygon fill="none" stroke="black" points="360,-105 151,-105 151,-69 360,-69 360,-105"/>
<text text-anchor="middle" x="255.5" y="-83.3" font-family="sans-serif" font-size="14.00">aws_subnet.public_subnet1</text>
</g>
<!-- aws_lb.load&#45;balancer&#45;&gt;aws_subnet.public_subnet1 -->
<g id="edge11" class="edge">
<title>aws_lb.load&#45;balancer&#45;&gt;aws_subnet.public_subnet1</title>
<path fill="none" stroke="black" d="M452.33,-213.46C432.89,-209.4 413.1,-202.51 397,-191 371.08,-172.47 385.09,-149.85 361,-129 351.93,-121.15 341.21,-114.65 330.15,-109.31"/>
<polygon fill="black" stroke="black" points="331.36,-106.02 320.81,-105.09 328.48,-112.4 331.36,-106.02"/>
</g>
<!-- aws_subnet.public_subnet2 -->
<g id="node28" class="node">
<title>aws_subnet.public_subnet2</title>
<polygon fill="none" stroke="black" points="360,-282 151,-282 151,-246 360,-246 360,-282"/>
<text text-anchor="middle" x="255.5" y="-260.3" font-family="sans-serif" font-size="14.00">aws_subnet.public_subnet2</text>
</g>
<!-- aws_lb.load&#45;balancer&#45;&gt;aws_subnet.public_subnet2 -->
<g id="edge12" class="edge">
<title>aws_lb.load&#45;balancer&#45;&gt;aws_subnet.public_subnet2</title>
<path fill="none" stroke="black" d="M452.3,-231.37C426.64,-235.64 397.73,-240.46 370.16,-245.06"/>
<polygon fill="black" stroke="black" points="369.36,-241.64 360.07,-246.74 370.51,-248.55 369.36,-241.64"/>
</g>
<!-- aws_lb_listener.listener -->
<g id="node11" class="node">
<title>aws_lb_listener.listener</title>
<polygon fill="none" stroke="black" points="1011.5,-371 835.5,-371 835.5,-335 1011.5,-335 1011.5,-371"/>
<text text-anchor="middle" x="923.5" y="-349.3" font-family="sans-serif" font-size="14.00">aws_lb_listener.listener</text>
</g>
<!-- aws_lb_listener.listener&#45;&gt;aws_lb.load&#45;balancer -->
<g id="edge13" class="edge">
<title>aws_lb_listener.listener&#45;&gt;aws_lb.load&#45;balancer</title>
<path fill="none" stroke="black" d="M835.28,-356.54C793.9,-354.73 745.08,-347.3 706,-326 684.11,-314.07 689.68,-298.29 670,-283 647.25,-265.33 618.93,-250.81 594.06,-240.01"/>
<polygon fill="black" stroke="black" points="595.3,-236.73 584.72,-236.06 592.57,-243.18 595.3,-236.73"/>
</g>
<!-- aws_lb_listener.listener&#45;&gt;aws_lb_target_group.target&#45;group -->
<g id="edge14" class="edge">
<title>aws_lb_listener.listener&#45;&gt;aws_lb_target_group.target&#45;group</title>
<path fill="none" stroke="black" d="M835.43,-355.47C786.42,-356.86 724.17,-358.62 669.02,-360.19"/>
<polygon fill="black" stroke="black" points="668.71,-356.69 658.81,-360.48 668.91,-363.69 668.71,-356.69"/>
</g>
<!-- aws_lb_target_group.target&#45;group&#45;&gt;aws_vpc.main -->
<g id="edge15" class="edge">
<title>aws_lb_target_group.target&#45;group&#45;&gt;aws_vpc.main</title>
<path fill="none" stroke="black" d="M408.32,-366.43C332.98,-365.78 235.25,-361.16 150,-345 137.97,-342.72 125.36,-339.24 113.46,-335.42"/>
<polygon fill="black" stroke="black" points="114.26,-331.99 103.67,-332.15 112.04,-338.63 114.26,-331.99"/>
</g>
<!-- aws_nat_gateway.nat_gateway&#45;a -->
<g id="node13" class="node">
<title>aws_nat_gateway.nat_gateway&#45;a</title>
<polygon fill="none" stroke="black" points="654.5,-36 412.5,-36 412.5,0 654.5,0 654.5,-36"/>
<text text-anchor="middle" x="533.5" y="-14.3" font-family="sans-serif" font-size="14.00">aws_nat_gateway.nat_gateway&#45;a</text>
</g>
<!-- aws_nat_gateway.nat_gateway&#45;a&#45;&gt;aws_eip.nat&#45;eip&#45;a -->
<g id="edge16" class="edge">
<title>aws_nat_gateway.nat_gateway&#45;a&#45;&gt;aws_eip.nat&#45;eip&#45;a</title>
<path fill="none" stroke="black" d="M412.25,-18C386.06,-18 359.01,-18 334.95,-18"/>
<polygon fill="black" stroke="black" points="334.83,-14.5 324.83,-18 334.83,-21.5 334.83,-14.5"/>
</g>
<!-- aws_nat_gateway.nat_gateway&#45;a&#45;&gt;aws_internet_gateway.igw -->
<g id="edge17" class="edge">
<title>aws_nat_gateway.nat_gateway&#45;a&#45;&gt;aws_internet_gateway.igw</title>
<path fill="none" stroke="black" d="M487.28,-36.11C460.15,-47.84 425.5,-64.37 397,-83 379.33,-94.56 379.04,-103.03 361,-114 348.45,-121.64 334.26,-128.41 320.47,-134.17"/>
<polygon fill="black" stroke="black" points="318.98,-131 311.02,-137.99 321.6,-137.49 318.98,-131"/>
</g>
<!-- aws_nat_gateway.nat_gateway&#45;a&#45;&gt;aws_subnet.public_subnet1 -->
<g id="edge18" class="edge">
<title>aws_nat_gateway.nat_gateway&#45;a&#45;&gt;aws_subnet.public_subnet1</title>
<path fill="none" stroke="black" d="M454.67,-36.02C435.78,-40.49 415.64,-45.34 397,-50 376.3,-55.17 353.93,-60.96 333.27,-66.4"/>
<polygon fill="black" stroke="black" points="332.36,-63.02 323.59,-68.96 334.15,-69.79 332.36,-63.02"/>
</g>
<!-- aws_nat_gateway.nat_gateway&#45;b -->
<g id="node14" class="node">
<title>aws_nat_gateway.nat_gateway&#45;b</title>
<polygon fill="none" stroke="black" points="654.5,-328 412.5,-328 412.5,-292 654.5,-292 654.5,-328"/>
<text text-anchor="middle" x="533.5" y="-306.3" font-family="sans-serif" font-size="14.00">aws_nat_gateway.nat_gateway&#45;b</text>
</g>
<!-- aws_nat_gateway.nat_gateway&#45;b&#45;&gt;aws_eip.nat&#45;eip&#45;b -->
<g id="edge19" class="edge">
<title>aws_nat_gateway.nat_gateway&#45;b&#45;&gt;aws_eip.nat&#45;eip&#45;b</title>
<path fill="none" stroke="black" d="M412.25,-313.49C386.19,-314.24 359.27,-315.02 335.3,-315.72"/>
<polygon fill="black" stroke="black" points="335.11,-312.22 325.22,-316.01 335.31,-319.22 335.11,-312.22"/>
</g>
<!-- aws_nat_gateway.nat_gateway&#45;b&#45;&gt;aws_internet_gateway.igw -->
<g id="edge20" class="edge">
<title>aws_nat_gateway.nat_gateway&#45;b&#45;&gt;aws_internet_gateway.igw</title>
<path fill="none" stroke="black" d="M476.54,-291.92C450.17,-281.34 419.61,-265.9 397,-245 373.6,-223.37 386.39,-202.25 361,-183 359.18,-181.62 357.3,-180.31 355.36,-179.07"/>
<polygon fill="black" stroke="black" points="356.98,-175.96 346.56,-174.03 353.5,-182.04 356.98,-175.96"/>
</g>
<!-- aws_nat_gateway.nat_gateway&#45;b&#45;&gt;aws_subnet.public_subnet2 -->
<g id="edge21" class="edge">
<title>aws_nat_gateway.nat_gateway&#45;b&#45;&gt;aws_subnet.public_subnet2</title>
<path fill="none" stroke="black" d="M424.21,-291.95C406.66,-289.03 388.44,-285.99 370.76,-283.04"/>
<polygon fill="black" stroke="black" points="370.85,-279.51 360.42,-281.32 369.7,-286.42 370.85,-279.51"/>
</g>
<!-- aws_route_table.private_route_table1 -->
<g id="node15" class="node">
<title>aws_route_table.private_route_table1</title>
<polygon fill="none" stroke="black" points="1060.5,-46 786.5,-46 786.5,-10 1060.5,-10 1060.5,-46"/>
<text text-anchor="middle" x="923.5" y="-24.3" font-family="sans-serif" font-size="14.00">aws_route_table.private_route_table1</text>
</g>
<!-- aws_route_table.private_route_table1&#45;&gt;aws_nat_gateway.nat_gateway&#45;a -->
<g id="edge22" class="edge">
<title>aws_route_table.private_route_table1&#45;&gt;aws_nat_gateway.nat_gateway&#45;a</title>
<path fill="none" stroke="black" d="M786.25,-24.49C746.86,-23.47 703.98,-22.37 664.96,-21.36"/>
<polygon fill="black" stroke="black" points="664.68,-17.85 654.59,-21.1 664.5,-24.85 664.68,-17.85"/>
</g>
<!-- aws_route_table.private_route_table2 -->
<g id="node16" class="node">
<title>aws_route_table.private_route_table2</title>
<polygon fill="none" stroke="black" points="1060.5,-317 786.5,-317 786.5,-281 1060.5,-281 1060.5,-317"/>
<text text-anchor="middle" x="923.5" y="-295.3" font-family="sans-serif" font-size="14.00">aws_route_table.private_route_table2</text>
</g>
<!-- aws_route_table.private_route_table2&#45;&gt;aws_nat_gateway.nat_gateway&#45;b -->
<g id="edge23" class="edge">
<title>aws_route_table.private_route_table2&#45;&gt;aws_nat_gateway.nat_gateway&#45;b</title>
<path fill="none" stroke="black" d="M786.25,-302.86C746.86,-303.98 703.98,-305.2 664.96,-306.3"/>
<polygon fill="black" stroke="black" points="664.49,-302.81 654.59,-306.6 664.69,-309.81 664.49,-302.81"/>
</g>
<!-- aws_route_table.public_route_table1 -->
<g id="node17" class="node">
<title>aws_route_table.public_route_table1</title>
<polygon fill="none" stroke="black" points="667,-128 400,-128 400,-92 667,-92 667,-128"/>
<text text-anchor="middle" x="533.5" y="-106.3" font-family="sans-serif" font-size="14.00">aws_route_table.public_route_table1</text>
</g>
<!-- aws_route_table.public_route_table1&#45;&gt;aws_internet_gateway.igw -->
<g id="edge24" class="edge">
<title>aws_route_table.public_route_table1&#45;&gt;aws_internet_gateway.igw</title>
<path fill="none" stroke="black" d="M424.21,-128.05C404.31,-131.36 383.55,-134.82 363.69,-138.14"/>
<polygon fill="black" stroke="black" points="363,-134.7 353.71,-139.8 364.15,-141.61 363,-134.7"/>
</g>
<!-- aws_route_table.public_route_table2 -->
<g id="node18" class="node">
<title>aws_route_table.public_route_table2</title>
<polygon fill="none" stroke="black" points="667,-182 400,-182 400,-146 667,-146 667,-182"/>
<text text-anchor="middle" x="533.5" y="-160.3" font-family="sans-serif" font-size="14.00">aws_route_table.public_route_table2</text>
</g>
<!-- aws_route_table.public_route_table2&#45;&gt;aws_internet_gateway.igw -->
<g id="edge25" class="edge">
<title>aws_route_table.public_route_table2&#45;&gt;aws_internet_gateway.igw</title>
<path fill="none" stroke="black" d="M399.75,-160.15C387.79,-159.81 375.78,-159.46 364.07,-159.12"/>
<polygon fill="black" stroke="black" points="363.97,-155.61 353.87,-158.82 363.76,-162.61 363.97,-155.61"/>
</g>
<!-- aws_route_table_association.private_route_table_association1 -->
<g id="node19" class="node">
<title>aws_route_table_association.private_route_table_association1</title>
<polygon fill="none" stroke="black" points="1619,-201 1177,-201 1177,-165 1619,-165 1619,-201"/>
<text text-anchor="middle" x="1398" y="-179.3" font-family="sans-serif" font-size="14.00">aws_route_table_association.private_route_table_association1</text>
</g>
<!-- aws_route_table_association.private_route_table_association1&#45;&gt;aws_route_table.private_route_table1 -->
<g id="edge26" class="edge">
<title>aws_route_table_association.private_route_table_association1&#45;&gt;aws_route_table.private_route_table1</title>
<path fill="none" stroke="black" d="M1360.54,-164.82C1311.64,-141.05 1221.61,-99.46 1141,-74 1108.54,-63.75 1072.62,-55.08 1039.52,-48.13"/>
<polygon fill="black" stroke="black" points="1039.85,-44.63 1029.35,-46.03 1038.43,-51.48 1039.85,-44.63"/>
</g>
<!-- aws_route_table_association.private_route_table_association1&#45;&gt;aws_subnet.private_subnet1 -->
<g id="edge27" class="edge">
<title>aws_route_table_association.private_route_table_association1&#45;&gt;aws_subnet.private_subnet1</title>
<path fill="none" stroke="black" d="M1365.96,-201.11C1321.56,-227.77 1238.5,-280.59 1177,-337 1158.63,-353.85 1163.24,-368.75 1141,-380 1119.55,-390.85 821.27,-405.51 651.18,-413.06"/>
<polygon fill="black" stroke="black" points="651.01,-409.56 641.17,-413.5 651.32,-416.55 651.01,-409.56"/>
</g>
<!-- aws_route_table_association.private_route_table_association2 -->
<g id="node20" class="node">
<title>aws_route_table_association.private_route_table_association2</title>
<polygon fill="none" stroke="black" points="1619,-382 1177,-382 1177,-346 1619,-346 1619,-382"/>
<text text-anchor="middle" x="1398" y="-360.3" font-family="sans-serif" font-size="14.00">aws_route_table_association.private_route_table_association2</text>
</g>
<!-- aws_route_table_association.private_route_table_association2&#45;&gt;aws_route_table.private_route_table2 -->
<g id="edge28" class="edge">
<title>aws_route_table_association.private_route_table_association2&#45;&gt;aws_route_table.private_route_table2</title>
<path fill="none" stroke="black" d="M1279.51,-345.97C1236.03,-339.46 1186.3,-332.19 1141,-326 1118.26,-322.89 1094.15,-319.75 1070.61,-316.75"/>
<polygon fill="black" stroke="black" points="1070.91,-313.26 1060.55,-315.48 1070.03,-320.21 1070.91,-313.26"/>
</g>
<!-- aws_route_table_association.private_route_table_association2&#45;&gt;aws_subnet.private_subnet2 -->
<g id="edge29" class="edge">
<title>aws_route_table_association.private_route_table_association2&#45;&gt;aws_subnet.private_subnet2</title>
<path fill="none" stroke="black" d="M1313.45,-382.01C1263.58,-392.25 1198.89,-404.66 1141,-413 1117.18,-416.43 820.68,-444.8 651.26,-460.92"/>
<polygon fill="black" stroke="black" points="650.92,-457.44 641.29,-461.87 651.58,-464.41 650.92,-457.44"/>
</g>
<!-- aws_route_table_association.public_route_table_association1 -->
<g id="node21" class="node">
<title>aws_route_table_association.public_route_table_association1</title>
<polygon fill="none" stroke="black" points="1141,-119 706,-119 706,-83 1141,-83 1141,-119"/>
<text text-anchor="middle" x="923.5" y="-97.3" font-family="sans-serif" font-size="14.00">aws_route_table_association.public_route_table_association1</text>
</g>
<!-- aws_route_table_association.public_route_table_association1&#45;&gt;aws_route_table.public_route_table1 -->
<g id="edge30" class="edge">
<title>aws_route_table_association.public_route_table_association1&#45;&gt;aws_route_table.public_route_table1</title>
<path fill="none" stroke="black" d="M705.81,-106.03C696.19,-106.25 686.64,-106.47 677.26,-106.69"/>
<polygon fill="black" stroke="black" points="677.07,-103.19 667.16,-106.92 677.24,-110.19 677.07,-103.19"/>
</g>
<!-- aws_route_table_association.public_route_table_association1&#45;&gt;aws_subnet.public_subnet1 -->
<g id="edge31" class="edge">
<title>aws_route_table_association.public_route_table_association1&#45;&gt;aws_subnet.public_subnet1</title>
<path fill="none" stroke="black" d="M705.96,-84.55C693.8,-83.95 681.75,-83.42 670,-83 548.74,-78.68 518.32,-81.27 397,-83 388.31,-83.12 379.33,-83.29 370.29,-83.49"/>
<polygon fill="black" stroke="black" points="370,-79.99 360.08,-83.72 370.15,-86.99 370,-79.99"/>
</g>
<!-- aws_route_table_association.public_route_table_association2 -->
<g id="node22" class="node">
<title>aws_route_table_association.public_route_table_association2</title>
<polygon fill="none" stroke="black" points="1141,-228 706,-228 706,-192 1141,-192 1141,-228"/>
<text text-anchor="middle" x="923.5" y="-206.3" font-family="sans-serif" font-size="14.00">aws_route_table_association.public_route_table_association2</text>
</g>
<!-- aws_route_table_association.public_route_table_association2&#45;&gt;aws_route_table.public_route_table2 -->
<g id="edge32" class="edge">
<title>aws_route_table_association.public_route_table_association2&#45;&gt;aws_route_table.public_route_table2</title>
<path fill="none" stroke="black" d="M770.54,-191.98C739.91,-188.35 707.81,-184.55 677.5,-180.95"/>
<polygon fill="black" stroke="black" points="677.64,-177.45 667.29,-179.74 676.81,-184.4 677.64,-177.45"/>
</g>
<!-- aws_route_table_association.public_route_table_association2&#45;&gt;aws_subnet.public_subnet2 -->
<g id="edge33" class="edge">
<title>aws_route_table_association.public_route_table_association2&#45;&gt;aws_subnet.public_subnet2</title>
<path fill="none" stroke="black" d="M808.69,-228.04C765.37,-234.31 715.5,-240.81 670,-245 569.02,-254.3 453.72,-259.12 370.57,-261.57"/>
<polygon fill="black" stroke="black" points="370.24,-258.08 360.34,-261.87 370.44,-265.08 370.24,-258.08"/>
</g>
<!-- aws_security_group.ec2&#45;sg&#45;&gt;aws_vpc.main -->
<g id="edge34" class="edge">
<title>aws_security_group.ec2&#45;sg&#45;&gt;aws_vpc.main</title>
<path fill="none" stroke="black" d="M163.06,-521.9C158.43,-519.31 154.03,-516.36 150,-513 96.4,-468.29 72.39,-385.52 63.07,-342.16"/>
<polygon fill="black" stroke="black" points="66.48,-341.38 61.06,-332.28 59.63,-342.78 66.48,-341.38"/>
</g>
<!-- aws_security_group.lb_sg&#45;&gt;aws_vpc.main -->
<g id="edge35" class="edge">
<title>aws_security_group.lb_sg&#45;&gt;aws_vpc.main</title>
<path fill="none" stroke="black" d="M170.82,-228.01C163.62,-230.63 156.58,-233.62 150,-237 124.46,-250.13 99.74,-271.45 82.37,-288.34"/>
<polygon fill="black" stroke="black" points="79.55,-286.2 74.93,-295.73 84.49,-291.17 79.55,-286.2"/>
</g>
<!-- aws_subnet.private_subnet1&#45;&gt;aws_vpc.main -->
<g id="edge36" class="edge">
<title>aws_subnet.private_subnet1&#45;&gt;aws_vpc.main</title>
<path fill="none" stroke="black" d="M425.95,-416C347.7,-411.76 239.84,-400.09 150,-369 128.88,-361.69 107.34,-349.14 90.41,-337.87"/>
<polygon fill="black" stroke="black" points="92.24,-334.88 82,-332.13 88.29,-340.66 92.24,-334.88"/>
</g>
<!-- aws_subnet.private_subnet2&#45;&gt;aws_vpc.main -->
<g id="edge37" class="edge">
<title>aws_subnet.private_subnet2&#45;&gt;aws_vpc.main</title>
<path fill="none" stroke="black" d="M425.82,-459.81C329.9,-447.57 197.06,-427.12 150,-403 120.8,-388.03 94.68,-360.72 77.8,-340.29"/>
<polygon fill="black" stroke="black" points="80.35,-337.88 71.36,-332.28 74.9,-342.27 80.35,-337.88"/>
</g>
<!-- aws_subnet.public_subnet1&#45;&gt;aws_vpc.main -->
<g id="edge38" class="edge">
<title>aws_subnet.public_subnet1&#45;&gt;aws_vpc.main</title>
<path fill="none" stroke="black" d="M188.62,-105.02C174.74,-111.02 160.99,-118.85 150,-129 102.71,-172.68 76.51,-246.03 65.07,-285.99"/>
<polygon fill="black" stroke="black" points="61.64,-285.29 62.35,-295.86 68.38,-287.15 61.64,-285.29"/>
</g>
<!-- aws_subnet.public_subnet2&#45;&gt;aws_vpc.main -->
<g id="edge39" class="edge">
<title>aws_subnet.public_subnet2&#45;&gt;aws_vpc.main</title>
<path fill="none" stroke="black" d="M183.56,-282.05C164.09,-287.01 143.06,-292.36 123.89,-297.24"/>
<polygon fill="black" stroke="black" points="122.87,-293.88 114.05,-299.74 124.6,-300.66 122.87,-293.88"/>
</g>
</g>
</svg>
